HIERARCHY
ROOT Pelvis
{
	OFFSET 0.000000 0.000000 0.000000
	CHANNELS 6 Xposition Yposition Zposition Xrotation Yrotation Zrotation
	JOINT LeftUpLeg_virtual
	{
		OFFSET 0.000000 0.000000 0.000000
		CHANNELS 3 Xrotation Yrotation Zrotation
		JOINT LeftUpLeg
		{
			OFFSET 18.735201 -5.666702 -4.541200
			CHANNELS 3 Xrotation Yrotation Zrotation
			JOINT LeftLeg
			{
				OFFSET -0.021200 -31.938179 0.493100
				CHANNELS 3 Xrotation Yrotation Zrotation
				JOINT LeftFoot
				{
					OFFSET 0.021200 -31.938179 -4.336299
					CHANNELS 3 Xrotation Yrotation Zrotation
					JOINT LeftToeBase
					{
						OFFSET 0.943001 -26.722000 15.023500
						CHANNELS 3 Xrotation Yrotation Zrotation
						End Site
						{
							OFFSET 0 0 0
						}
					}
				}
			}
		}
	}
	JOINT RightUpLeg_virtual
	{
		OFFSET 0.000000 0.000000 0.000000
		CHANNELS 3 Xrotation Yrotation Zrotation
		JOINT RightUpLeg
		{
			OFFSET -18.735201 -5.666702 -4.541200
			CHANNELS 3 Xrotation Yrotation Zrotation
			JOINT RightLeg
			{
				OFFSET 0.018946 -31.938133 0.493100
				CHANNELS 3 Xrotation Yrotation Zrotation
				JOINT RightFoot
				{
					OFFSET -0.018946 -31.938126 -4.336299
					CHANNELS 3 Xrotation Yrotation Zrotation
					JOINT RightToeBase
					{
						OFFSET -0.943001 -26.722004 15.023500
						CHANNELS 3 Xrotation Yrotation Zrotation
						End Site
						{
							OFFSET 0 0 0
						}
					}
				}
			}
		}
	}
	JOINT Hips_virtual
	{
		OFFSET 0.000000 0.000000 0.000000
		CHANNELS 3 Xrotation Yrotation Zrotation
		JOINT Hips
		{
			OFFSET -0.000000 -0.000000 -0.000000
			CHANNELS 3 Xrotation Yrotation Zrotation
			JOINT Spine
			{
				OFFSET 0.000000 10.199997 -0.299500
				CHANNELS 3 Xrotation Yrotation Zrotation
				JOINT Spine1
				{
					OFFSET 0.000000 11.900002 -1.516600
					CHANNELS 3 Xrotation Yrotation Zrotation
					JOINT Spine2
					{
						OFFSET 0.000000 13.600006 -2.842500
						CHANNELS 3 Xrotation Yrotation Zrotation
						JOINT Neck_virtual
						{
							OFFSET 0.000000 0.000000 0.000000
							CHANNELS 3 Xrotation Yrotation Zrotation
							JOINT Neck
							{
								OFFSET 0.000000 9.624100 -2.890100
								CHANNELS 3 Xrotation Yrotation Zrotation
								JOINT Head
								{
									OFFSET 0.000000 14.068802 -1.351900
									CHANNELS 3 Xrotation Yrotation Zrotation
									End Site
									{
										OFFSET 0 0 0
									}
								}
							}
						}
						JOINT LeftShoulder_virtual
						{
							OFFSET 0.000000 0.000000 0.000000
							CHANNELS 3 Xrotation Yrotation Zrotation
							JOINT LeftShoulder
							{
								OFFSET 15.263000 10.923401 -0.547700
								CHANNELS 3 Xrotation Yrotation Zrotation
								JOINT LeftArm
								{
									OFFSET 25.438599 -2.830597 -13.032500
									CHANNELS 3 Xrotation Yrotation Zrotation
									JOINT LeftForeArm
									{
										OFFSET 29.960503 0.000000 0.000000
										CHANNELS 3 Xrotation Yrotation Zrotation
										JOINT LeftHand
										{
											OFFSET 27.849251 0.000000 0.000000
											CHANNELS 3 Xrotation Yrotation Zrotation
											End Site
											{
												OFFSET 0 0 0
											}
										}
									}
								}
							}
						}
						JOINT RightShoulder_virtual
						{
							OFFSET 0.000000 0.000000 0.000000
							CHANNELS 3 Xrotation Yrotation Zrotation
							JOINT RightShoulder
							{
								OFFSET -15.263000 10.923401 -0.547700
								CHANNELS 3 Xrotation Yrotation Zrotation
								JOINT RightArm
								{
									OFFSET -25.438599 -2.830597 -13.032500
									CHANNELS 3 Xrotation Yrotation Zrotation
									JOINT RightForeArm
									{
										OFFSET -29.960503 0.000000 0.000000
										CHANNELS 3 Xrotation Yrotation Zrotation
										JOINT RightHand
										{
											OFFSET -27.849251 0.000000 0.000000
											CHANNELS 3 Xrotation Yrotation Zrotation
											End Site
											{
												OFFSET 0 0 0
											}
										}
									}
								}
							}
						}
					}
				}
			}
		}
	}
}
MOTION
Frames: 10
Frame Time: 0.03333333
4.663184 90.509605 -0.843082 0.000000 0.000000 0.000000 11.527671 -44.235969 2.085360 -29.491766 0.954724 12.622244 52.393473 14.485448 -4.724589 -6.103056 14.755761 -1.390300 0.000000 0.000000 0.000000 8.478241 8.179866 8.748356 -18.974793 -5.194336 -4.904093 37.986869 3.265922 -4.559350 -12.208782 2.263147 5.778462 0.000000 0.000000 0.000000 5.141899 -1.687667 -1.071505 -2.973681 -11.219375 -13.467707 27.768708 -2.559171 14.305808 13.839892 -2.236553 8.703934 0.000000 0.000000 0.000000 10.271361 -0.414803 8.324783 3.860505 -1.079318 3.568036 0.000000 0.000000 0.000000 17.195119 -2.138434 5.932190 2.794200 -23.070017 5.042135 -21.140414 -13.443989 -43.137310 0.675507 -49.302826 -4.942725 0.000000 0.000000 0.000000 15.633185 -0.143075 8.310223 2.518807 1.740776 23.175793 -7.820287 26.490836 34.223100 7.139360 58.681324 -7.391971 0.000000 0.000000 0.000000 
4.597899 90.518646 -0.833103 0.000000 0.000000 0.000000 11.538653 -44.128681 2.130070 -29.489181 0.966939 12.682609 52.338578 14.409401 -4.689872 -6.102675 14.683481 -1.407928 0.000000 0.000000 0.000000 8.477353 8.219229 8.793396 -18.967336 -5.193601 -4.851740 37.954671 3.221868 -4.563396 -12.227359 2.220134 5.736245 0.000000 0.000000 0.000000 5.087994 -1.707472 -1.072883 -3.046226 -11.071583 -13.493272 27.740822 -2.549293 14.373585 13.815034 -2.235380 8.748712 0.000000 0.000000 0.000000 10.263577 -0.429557 8.344265 3.863348 -1.074009 3.571608 0.000000 0.000000 0.000000 17.193765 -2.152360 5.947396 2.798556 -23.051610 5.079785 -21.194395 -13.616553 -43.165952 0.698365 -49.478054 -4.956539 0.000000 0.000000 0.000000 15.603774 -0.167118 8.303943 2.516718 1.690132 23.096992 -7.784485 26.342515 34.323265 7.078496 58.633260 -7.301132 0.000000 0.000000 0.000000 
4.530029 90.532043 -0.823822 0.000000 0.000000 0.000000 11.547730 -44.008487 2.168156 -29.483229 0.983958 12.738443 52.273326 14.332829 -4.648033 -6.105190 14.608629 -1.417385 0.000000 0.000000 0.000000 8.476676 8.265191 8.836410 -18.957648 -5.190599 -4.799925 37.915616 3.172899 -4.567179 -12.249403 2.171867 5.690275 0.000000 0.000000 0.000000 5.034241 -1.721215 -1.074960 -3.120923 -10.917362 -13.520960 27.708548 -2.540939 14.444622 13.787870 -2.235091 8.795241 0.000000 0.000000 0.000000 10.255559 -0.445112 8.364393 3.866147 -1.069183 3.575473 0.000000 0.000000 0.000000 17.191885 -2.165927 5.963895 2.804373 -23.031186 5.122801 -21.238910 -13.777125 -43.199799 0.722778 -49.639394 -4.973020 0.000000 0.000000 0.000000 15.573945 -0.192630 8.297944 2.515778 1.633662 23.019428 -7.755360 26.186718 34.434713 7.012221 58.583011 -7.203616 0.000000 0.000000 0.000000 
4.459800 90.549332 -0.815226 0.000000 0.000000 0.000000 11.556103 -43.878153 2.200472 -29.473144 1.005132 12.789732 52.199021 14.256619 -4.600439 -6.110662 14.532327 -1.419656 0.000000 0.000000 0.000000 8.476282 8.316298 8.877276 -18.945927 -5.185702 -4.749019 37.869629 3.119255 -4.570689 -12.275273 2.118516 5.640793 0.000000 0.000000 0.000000 4.980487 -1.729521 -1.077638 -3.198059 -10.757156 -13.550627 27.671781 -2.533846 14.518846 13.758361 -2.235584 8.843499 0.000000 0.000000 0.000000 10.247245 -0.461337 8.385109 3.868885 -1.064834 3.579559 0.000000 0.000000 0.000000 17.189399 -2.178925 5.981684 2.811613 -23.008397 5.171046 -21.273466 -13.925839 -43.238154 0.749210 -49.786659 -4.991728 0.000000 0.000000 0.000000 15.543574 -0.219480 8.292297 2.515890 1.571962 22.943543 -7.733860 26.023878 34.559712 6.939804 58.530227 -7.098407 0.000000 0.000000 0.000000 
4.387469 90.569939 -0.807222 0.000000 0.000000 0.000000 11.564890 -43.741064 2.228052 -29.458510 1.029600 12.836620 52.117373 14.181327 -4.548702 -6.119051 14.455481 -1.416259 0.000000 0.000000 0.000000 8.476288 8.371047 8.915880 -18.932352 -5.179306 -4.699404 37.816893 3.061315 -4.573912 -12.305158 2.060401 5.588185 0.000000 0.000000 0.000000 4.926636 -1.733091 -1.080841 -3.277792 -10.591464 -13.582331 27.630475 -2.527733 14.596179 13.726493 -2.236741 8.893477 0.000000 0.000000 0.000000 10.238605 -0.478077 8.406365 3.871558 -1.060942 3.583810 0.000000 0.000000 0.000000 17.186248 -2.191140 6.000752 2.820253 -22.982871 5.224391 -21.297520 -14.062950 -43.280170 0.778200 -49.919797 -5.012107 0.000000 0.000000 0.000000 15.512632 -0.247483 8.287105 2.517036 1.505812 22.869895 -7.720856 25.854085 34.700336 6.860478 58.474506 -6.984519 0.000000 0.000000 0.000000 
4.313294 90.593300 -0.799634 0.000000 0.000000 0.000000 11.575112 -43.600721 2.252067 -29.439113 1.056395 12.879433 52.030223 14.107208 -4.494457 -6.130223 14.378750 -1.408968 0.000000 0.000000 0.000000 8.476874 8.428029 8.952104 -18.916994 -5.171784 -4.651448 37.757829 2.999584 -4.576821 -12.339088 1.997974 5.532957 0.000000 0.000000 0.000000 4.872668 -1.732652 -1.084532 -3.360024 -10.420768 -13.616375 27.584574 -2.522360 14.676559 13.692245 -2.238449 8.945150 0.000000 0.000000 0.000000 10.229638 -0.495175 8.428152 3.874170 -1.057475 3.588193 0.000000 0.000000 0.000000 17.182367 -2.202400 6.021082 2.830282 -22.954323 5.282716 -21.310460 -14.188860 -43.324891 0.810366 -50.038837 -5.033490 0.000000 0.000000 0.000000 15.481174 -0.276432 8.282488 2.519272 1.436064 22.799192 -7.717127 25.677063 34.858454 6.773484 58.415179 -6.861006 0.000000 0.000000 0.000000 
4.237514 90.618866 -0.792221 0.000000 0.000000 0.000000 11.587731 -43.460384 2.273776 -29.414811 1.084555 12.918643 51.939286 14.034323 -4.439183 -6.143988 14.302562 -1.399536 0.000000 0.000000 0.000000 8.478316 8.486005 8.985822 -18.899765 -5.163478 -4.605481 37.692942 2.934679 -4.579381 -12.377019 1.931814 5.475710 0.000000 0.000000 0.000000 4.818651 -1.728924 -1.088711 -3.444338 -10.245495 -13.653291 27.534050 -2.517561 14.759941 13.655580 -2.240638 8.998498 0.000000 0.000000 0.000000 10.220354 -0.512501 8.450477 3.876740 -1.054402 3.592693 0.000000 0.000000 0.000000 17.177649 -2.212596 6.042664 2.841696 -22.922624 5.345916 -21.311626 -14.304142 -43.371288 0.846398 -50.144005 -5.055122 0.000000 0.000000 0.000000 15.449256 -0.306130 8.278596 2.522703 1.363518 22.732193 -7.723334 25.492054 35.035756 6.678057 58.351515 -6.726944 0.000000 0.000000 0.000000 
4.160346 90.646164 -0.784694 0.000000 0.000000 0.000000 11.603636 -43.322756 2.294454 -29.385461 1.113217 12.954849 51.846057 13.962588 -4.384072 -6.160101 14.227182 -1.389462 0.000000 0.000000 0.000000 8.480999 8.543924 9.016919 -18.880381 -5.154688 -4.561775 37.622772 2.867322 -4.581553 -12.418839 1.862607 5.417123 0.000000 0.000000 0.000000 4.764722 -1.722569 -1.093418 -3.529965 -10.065931 -13.693774 27.478865 -2.513289 14.846282 13.616464 -2.243280 9.053496 0.000000 0.000000 0.000000 10.210774 -0.529976 8.473364 3.879291 -1.051698 3.597294 0.000000 0.000000 0.000000 17.171965 -2.221716 6.065488 2.854481 -22.887843 5.413861 -21.300387 -14.409529 -43.418215 0.886996 -50.235632 -5.076193 0.000000 0.000000 0.000000 15.416970 -0.336426 8.275581 2.527478 1.288832 22.669697 -7.739918 25.297882 35.233773 6.573503 58.282557 -6.581454 0.000000 0.000000 0.000000 
4.081995 90.674820 -0.776737 0.000000 0.000000 0.000000 11.623654 -43.189868 2.315296 -29.350843 1.141689 12.988696 51.751746 13.891886 -4.329976 -6.178264 14.152733 -1.379859 0.000000 0.000000 0.000000 8.485404 8.600876 9.045298 -18.858357 -5.145688 -4.520532 37.547811 2.798319 -4.583284 -12.464475 1.791124 5.357945 0.000000 0.000000 0.000000 4.711091 -1.714150 -1.098725 -3.615778 -9.882117 -13.738657 27.419040 -2.509611 14.935494 13.574874 -2.246409 9.110073 0.000000 0.000000 0.000000 10.200906 -0.547585 8.496797 3.881843 -1.049350 3.601962 0.000000 0.000000 0.000000 17.165143 -2.229839 6.089532 2.868609 -22.850242 5.486356 -21.276273 -14.505812 -43.464465 0.932776 -50.314042 -5.095913 0.000000 0.000000 0.000000 15.384368 -0.367221 8.273597 2.533781 1.212483 22.612415 -7.767010 25.093219 35.453804 6.459286 58.207460 -6.423793 0.000000 0.000000 0.000000 
4.002679 90.704536 -0.768029 0.000000 0.000000 0.000000 11.648466 -43.063007 2.337322 -29.310763 1.169485 13.020829 51.657288 13.822070 -4.277385 -6.198102 14.079254 -1.371415 0.000000 0.000000 0.000000 8.492087 8.656046 9.070905 -18.833046 -5.136741 -4.481860 37.468403 2.728546 -4.584507 -12.513924 1.718195 5.298982 0.000000 0.000000 0.000000 4.658033 -1.704085 -1.104734 -3.700269 -9.693779 -13.788829 27.354629 -2.506709 15.027393 13.530810 -2.250112 9.168101 0.000000 0.000000 0.000000 10.190711 -0.565381 8.520692 3.884387 -1.047363 3.606620 0.000000 0.000000 0.000000 17.157012 -2.237138 6.114747 2.884027 -22.810301 5.563079 -21.239086 -14.593756 -43.508872 0.984173 -50.379632 -5.113585 0.000000 0.000000 0.000000 15.351502 -0.398473 8.272759 2.541830 1.134783 22.560902 -7.804336 24.876857 35.696898 6.335144 58.125620 -6.253427 0.000000 0.000000 0.000000 
